<?xml version="1.0" encoding="UTF-8" standalone="no"?>
<svg
   xmlns:dc="http://purl.org/dc/elements/1.1/"
   xmlns:cc="http://creativecommons.org/ns#"
   xmlns:rdf="http://www.w3.org/1999/02/22-rdf-syntax-ns#"
   xmlns:svg="http://www.w3.org/2000/svg"
   xmlns="http://www.w3.org/2000/svg"
   xmlns:sodipodi="http://sodipodi.sourceforge.net/DTD/sodipodi-0.dtd"
   xmlns:inkscape="http://www.inkscape.org/namespaces/inkscape"
   height="3333.5"
   width="3317.5"
   inkscape:version="1.0 (4035a4fb49, 2020-05-01)"
   sodipodi:docname="syringe.svg"
   id="svg4"
   version="1.1"
   clip-rule="evenodd"
   fill-rule="evenodd"
   image-rendering="optimizeQuality"
   text-rendering="geometricPrecision"
   shape-rendering="geometricPrecision"
   viewBox="0 0 3317.5 3333.5"
   inkscape:export-xdpi="3.7056694"
   inkscape:export-ydpi="3.7056694">
  <metadata
     id="metadata10">
    <rdf:RDF>
      <cc:Work
         rdf:about="">
        <dc:format>image/svg+xml</dc:format>
        <dc:type
           rdf:resource="http://purl.org/dc/dcmitype/StillImage" />
        <dc:title></dc:title>
      </cc:Work>
    </rdf:RDF>
  </metadata>
  <defs
     id="defs8" />
  <sodipodi:namedview
     fit-margin-bottom="0"
     fit-margin-right="0"
     fit-margin-left="0"
     fit-margin-top="0"
     inkscape:current-layer="svg4"
     inkscape:window-maximized="1"
     inkscape:window-y="-8"
     inkscape:window-x="-8"
     inkscape:cy="2252.272"
     inkscape:cx="2421.3408"
     inkscape:zoom="0.13171317"
     showgrid="false"
     id="namedview6"
     inkscape:window-height="1027"
     inkscape:window-width="1920"
     inkscape:pageshadow="2"
     inkscape:pageopacity="0"
     guidetolerance="10"
     gridtolerance="10"
     objecttolerance="10"
     borderopacity="1"
     bordercolor="#666666"
     pagecolor="#ffffff"
     inkscape:document-rotation="0" />
  <path
     style="fill:#3867cf;fill-opacity:1"
     id="path2"
     fill-rule="nonzero"
     d="m 1363.5,1240 359,359 c 30,30 30,79 0,109 -30,30 -79,30 -109,0 l -359,-359 -148,148 359,359 c 30,30 30,79 0,109 -30,30 -79,30 -109,0 l -359,-359 -148,148 359,359 c 30,30 30,79 0,109 -30,30 -79,30 -109,0 l -359,-359 -148,148 359,359 c 30,30 30,79 0,109 -30,30 -79,30 -109,0 l -359,-359 -25,25 c -67,67 -101,156 -101,246 0,89 34,178 101,246 l 101,101 c 8,4 16,9 23,16 7,7 12,15 16,23 l 119,119 c 59,59 137,88 214,88 78,0 155,-29 214,-88 l 1146,-1146 -719,-719 -211,211 z m 274,-369 74,74 412,-412 c -52,-60 -79,-136 -79,-211 0,-82 31,-165 94,-228 63,-63 145,-94 228,-94 82,0 165,31 228,94 l 629,629 c 62,62 94,145 94,228 0,82 -31,165 -94,228 -63,63 -145,94 -228,94 -71,0 -141,-23 -200,-69 l -413,413 69,69 c 5,5 10,12 13,18 l 153,153 c 30,30 30,79 0,109 -30,30 -79,30 -109,0 l -122,-122 -1146,1146 c -85,85 -197,128 -309,128 -112,0 -224,-43 -309,-128 l -85,-85 -406,406 c -30,30 -79,30 -109,0 -30,-30 -30,-79 0,-109 l 406,-406 -66,-66 c -94,-94 -141,-217 -141,-340 0,-123 47,-247 141,-340 l 1114,-1114 -109,-109 c -30,-30 -30,-79 0,-109 30,-30 79,-30 109,0 l 141,141 c 7,3 13,7 18,13 z m 1463,-26 -629,-629 c -29,-29 -67,-43 -106,-43 -38,0 -77,14 -106,43 -29,29 -43,67 -43,106 0,38 14,77 43,106 l 629,629 c 29,29 67,43 106,43 38,0 77,-14 106,-43 29,-29 43,-67 43,-106 0,-38 -15,-76 -44,-106 z m -433,242 -427,-427 -392,392 427,427 z" />
</svg>
